<svg width="44" height="44" viewBox="0 0 44 44" fill="none" xmlns="http://www.w3.org/2000/svg">
<path d="M39.9771 18.4094H38.5003V18.3333H22.0003V25.6667H32.3614C30.8498 29.9356 26.7881 33 22.0003 33C15.9256 33 11.0003 28.0747 11.0003 22C11.0003 15.9252 15.9256 11 22.0003 11C24.8044 11 27.3555 12.0578 29.2979 13.7857L34.4835 8.60016C31.2092 5.54858 26.8293 3.66666 22.0003 3.66666C11.8757 3.66666 3.66699 11.8754 3.66699 22C3.66699 32.1246 11.8757 40.3333 22.0003 40.3333C32.1249 40.3333 40.3337 32.1246 40.3337 22C40.3337 20.7707 40.2072 19.5708 39.9771 18.4094Z" fill="#FFC107"/>
<path d="M5.78027 13.4667L11.8037 17.8842C13.4335 13.849 17.3807 11 21.9998 11C24.8039 11 27.3549 12.0578 29.2974 13.7857L34.4829 8.60016C31.2086 5.54858 26.8288 3.66666 21.9998 3.66666C14.9579 3.66666 8.85111 7.64225 5.78027 13.4667Z" fill="#FF3D00"/>
<path d="M22 40.3333C26.7355 40.3333 31.0383 38.5211 34.2915 35.574L28.6174 30.7725C26.7149 32.2194 24.3901 33.0019 22 33C17.2315 33 13.1825 29.9594 11.6572 25.7162L5.67871 30.3224C8.71288 36.2597 14.8747 40.3333 22 40.3333Z" fill="#4CAF50"/>
<path d="M39.9768 18.4094H38.5V18.3333H22V25.6667H32.3611C31.638 27.6984 30.3356 29.4737 28.6147 30.7734L28.6174 30.7716L34.2916 35.5731C33.8901 35.9379 40.3333 31.1667 40.3333 22C40.3333 20.7707 40.2068 19.5708 39.9768 18.4094Z" fill="#1976D2"/>
</svg>
