<svg width="145" height="138" viewBox="0 0 145 138" fill="none" xmlns="http://www.w3.org/2000/svg">
<g clip-path="url(#clip0_326:11)">
<path d="M70.4061 39.9607L24.1082 80.889V125.062C24.1082 126.206 24.5315 127.303 25.285 128.112C26.0385 128.921 27.0604 129.375 28.126 129.375L56.2658 129.297C57.3279 129.291 58.3447 128.834 59.0939 128.026C59.843 127.218 60.2636 126.124 60.2636 124.984V99.1875C60.2636 98.0437 60.6869 96.9468 61.4404 96.1381C62.1939 95.3293 63.2158 94.875 64.2814 94.875H80.3527C81.4183 94.875 82.4402 95.3293 83.1937 96.1381C83.9472 96.9468 84.3705 98.0437 84.3705 99.1875V124.965C84.3689 125.533 84.4716 126.095 84.6728 126.62C84.8739 127.145 85.1696 127.622 85.5429 128.024C85.9161 128.425 86.3596 128.744 86.8479 128.962C87.3362 129.179 87.8597 129.291 88.3884 129.291L116.518 129.375C117.584 129.375 118.606 128.921 119.359 128.112C120.113 127.303 120.536 126.206 120.536 125.062V80.8594L74.2481 39.9607C73.7039 39.4899 73.026 39.2331 72.3271 39.2331C71.6281 39.2331 70.9502 39.4899 70.4061 39.9607ZM143.538 67.779L122.545 49.2056V11.8728C122.545 11.015 122.227 10.1923 121.662 9.58579C121.097 8.97922 120.331 8.63846 119.532 8.63846H105.469C104.67 8.63846 103.903 8.97922 103.338 9.58579C102.773 10.1923 102.456 11.015 102.456 11.8728V31.4435L79.9735 11.5898C77.816 9.68418 75.1087 8.64227 72.3145 8.64227C69.5204 8.64227 66.8131 9.68418 64.6556 11.5898L1.09107 67.779C0.785931 68.0497 0.53348 68.3823 0.348137 68.7577C0.162795 69.1332 0.048194 69.5442 0.0108819 69.9672C-0.0264301 70.3902 0.0142783 70.817 0.130681 71.2231C0.247084 71.6292 0.4369 72.0067 0.689283 72.3341L7.09269 80.6895C7.34439 81.018 7.65397 81.29 8.00373 81.4899C8.35348 81.6898 8.73654 81.8138 9.13096 81.8546C9.52539 81.8954 9.92344 81.8523 10.3023 81.7278C10.6812 81.6032 11.0335 81.3997 11.339 81.1289L70.4061 28.9099C70.9502 28.4391 71.6281 28.1824 72.3271 28.1824C73.026 28.1824 73.7039 28.4391 74.2481 28.9099L133.318 81.1289C133.623 81.3998 133.974 81.6035 134.353 81.7285C134.731 81.8534 135.129 81.8971 135.523 81.857C135.917 81.817 136.3 81.694 136.65 81.495C136.999 81.2961 137.309 81.0251 137.562 80.6976L143.965 72.3422C144.217 72.0129 144.406 71.6334 144.521 71.2255C144.636 70.8176 144.675 70.3894 144.635 69.9653C144.596 69.5413 144.478 69.1298 144.29 68.7546C144.102 68.3794 143.846 68.0479 143.538 67.779Z" fill="white"/>
</g>
<defs>
<clipPath id="clip0_326:11">
<rect width="144.642" height="138" fill="white"/>
</clipPath>
</defs>
</svg>
