<svg width="142" height="103" viewBox="0 0 142 103" fill="none" xmlns="http://www.w3.org/2000/svg">
<g clip-path="url(#clip0_326:29)">
<path d="M69.1195 29.8257L23.6672 60.3736V93.3437C23.6672 94.1974 24.0827 95.0161 24.8225 95.6197C25.5622 96.2233 26.5655 96.5625 27.6116 96.5625L55.2375 96.5041C56.2802 96.4999 57.2784 96.1589 58.0139 95.5557C58.7494 94.9525 59.1622 94.1363 59.1622 93.2854V74.0312C59.1622 73.1775 59.5778 72.3588 60.3175 71.7552C61.0573 71.1516 62.0605 70.8125 63.1067 70.8125H78.8845C79.9306 70.8125 80.9339 71.1516 81.6736 71.7552C82.4133 72.3588 82.8289 73.1775 82.8289 74.0312V93.2713C82.8273 93.6948 82.9281 94.1145 83.1256 94.5061C83.3231 94.8978 83.6134 95.2538 83.9798 95.5538C84.3463 95.8538 84.7816 96.0917 85.261 96.2541C85.7404 96.4165 86.2543 96.5001 86.7733 96.5001L114.389 96.5625C115.436 96.5625 116.439 96.2233 117.179 95.6197C117.918 95.0161 118.334 94.1974 118.334 93.3437V60.3515L72.8914 29.8257C72.3571 29.4743 71.6916 29.2827 71.0054 29.2827C70.3192 29.2827 69.6537 29.4743 69.1195 29.8257ZM140.916 50.5886L120.306 36.7259V8.86157C120.306 8.22132 119.994 7.6073 119.44 7.15457C118.885 6.70185 118.132 6.44751 117.348 6.44751H103.542C102.758 6.44751 102.005 6.70185 101.45 7.15457C100.896 7.6073 100.584 8.22132 100.584 8.86157V23.4687L78.5122 8.65034C76.3941 7.22801 73.7362 6.45035 70.9931 6.45035C68.25 6.45035 65.5921 7.22801 63.474 8.65034L1.07042 50.5886C0.770859 50.7907 0.523019 51.0389 0.341062 51.3192C0.159104 51.5994 0.0465961 51.9061 0.00996555 52.2219C-0.026665 52.5376 0.0132998 52.8561 0.127577 53.1592C0.241854 53.4623 0.428203 53.7441 0.675977 53.9884L6.96243 60.2248C7.20953 60.47 7.51347 60.673 7.85683 60.8222C8.2002 60.9714 8.57626 61.0639 8.96348 61.0943C9.3507 61.1248 9.74148 61.0926 10.1135 60.9997C10.4854 60.9067 10.8313 60.7548 11.1312 60.5527L69.1195 21.5776C69.6537 21.2263 70.3192 21.0346 71.0054 21.0346C71.6916 21.0346 72.3571 21.2263 72.8914 21.5776L130.882 60.5527C131.182 60.7549 131.527 60.9069 131.898 61.0002C132.27 61.0934 132.66 61.1261 133.047 61.0962C133.434 61.0663 133.81 60.9745 134.153 60.826C134.497 60.6775 134.801 60.4753 135.048 60.2308L141.335 53.9945C141.582 53.7487 141.768 53.4655 141.881 53.1611C141.994 52.8566 142.032 52.537 141.993 52.2205C141.954 51.904 141.839 51.5969 141.654 51.3168C141.469 51.0368 141.218 50.7893 140.916 50.5886Z" fill="black"/>
</g>
<defs>
<clipPath id="clip0_326:29">
<rect width="142" height="103" fill="white"/>
</clipPath>
</defs>
</svg>
