<svg width="32" height="32" viewBox="0 0 32 32" fill="none" xmlns="http://www.w3.org/2000/svg">
<path d="M20 19H18V17H14V19H12V17C12.0005 16.4697 12.2114 15.9613 12.5864 15.5864C12.9613 15.2114 13.4697 15.0005 14 15H18C18.5303 15.0005 19.0387 15.2114 19.4136 15.5864C19.7886 15.9613 19.9995 16.4697 20 17V19Z" fill="black"/>
<path d="M16 14C15.4067 14 14.8266 13.8241 14.3333 13.4944C13.8399 13.1648 13.4554 12.6962 13.2284 12.1481C13.0013 11.5999 12.9419 10.9967 13.0576 10.4147C13.1734 9.83279 13.4591 9.29824 13.8787 8.87868C14.2982 8.45912 14.8328 8.1734 15.4147 8.05765C15.9967 7.94189 16.5999 8.0013 17.1481 8.22836C17.6962 8.45543 18.1648 8.83994 18.4944 9.33329C18.8241 9.82664 19 10.4067 19 11C18.9992 11.7954 18.6829 12.558 18.1204 13.1204C17.558 13.6829 16.7954 13.9992 16 14ZM16 10C15.8022 10 15.6089 10.0587 15.4444 10.1685C15.28 10.2784 15.1518 10.4346 15.0761 10.6173C15.0004 10.8 14.9806 11.0011 15.0192 11.1951C15.0578 11.3891 15.153 11.5673 15.2929 11.7071C15.4327 11.847 15.6109 11.9422 15.8049 11.9808C15.9989 12.0194 16.2 11.9996 16.3827 11.9239C16.5654 11.8482 16.7216 11.72 16.8315 11.5556C16.9414 11.3911 17 11.1978 17 11C16.9997 10.7349 16.8943 10.4807 16.7068 10.2932C16.5193 10.1057 16.2651 10.0003 16 10Z" fill="black"/>
<path d="M16 30L7.56401 20.051C7.44679 19.9016 7.33079 19.7513 7.21601 19.6C5.77499 17.7018 4.99652 15.3832 5.00001 13C5.00001 10.0826 6.15894 7.28473 8.22184 5.22183C10.2847 3.15893 13.0826 2 16 2C18.9174 2 21.7153 3.15893 23.7782 5.22183C25.8411 7.28473 27 10.0826 27 13C27.0035 15.3821 26.2254 17.6996 24.785 19.597L24.784 19.6C24.784 19.6 24.484 19.994 24.439 20.047L16 30ZM8.81201 18.395C8.81401 18.395 9.04601 18.703 9.09901 18.769L16 26.908L22.91 18.758C22.954 18.703 23.188 18.393 23.189 18.392C24.3662 16.8411 25.0023 14.947 25 13C25 10.6131 24.0518 8.32387 22.364 6.63604C20.6761 4.94821 18.387 4 16 4C13.6131 4 11.3239 4.94821 9.63605 6.63604C7.94822 8.32387 7.00001 10.6131 7.00001 13C6.99791 14.9482 7.63479 16.8434 8.81301 18.395H8.81201Z" fill="black"/>
</svg>
