<svg width="167" height="126" viewBox="0 0 167 126" fill="none" xmlns="http://www.w3.org/2000/svg">
<path d="M102.731 108.622H92.4582V97.1882H71.9119V108.622H61.6388V97.1882C61.6415 94.1566 62.7247 91.2501 64.6507 89.1065C66.5767 86.9629 69.1881 85.7573 71.9119 85.7543H92.4582C95.1819 85.7573 97.7934 86.9629 99.7194 89.1065C101.645 91.2501 102.729 94.1566 102.731 97.1882V108.622Z" fill="white"/>
<path d="M82.185 80.0373C79.1373 80.0373 76.158 79.0314 73.6239 77.1468C71.0898 75.2623 69.1147 72.5837 67.9483 69.4498C66.782 66.3159 66.4769 62.8674 67.0714 59.5405C67.666 56.2135 69.1337 53.1576 71.2887 50.759C73.4438 48.3604 76.1896 46.7269 79.1788 46.0652C82.168 45.4034 85.2663 45.743 88.0821 47.0411C90.8978 48.3392 93.3045 50.5375 94.9977 53.3579C96.691 56.1784 97.5947 59.4943 97.5947 62.8864C97.5907 67.4337 95.9658 71.7935 93.0768 75.0089C90.1878 78.2243 86.2707 80.0327 82.185 80.0373ZM82.185 57.1695C81.1691 57.1695 80.176 57.5048 79.3313 58.133C78.4866 58.7612 77.8283 59.654 77.4395 60.6987C77.0507 61.7433 76.949 62.8928 77.1472 64.0018C77.3454 65.1107 77.8346 66.1294 78.5529 66.9289C79.2713 67.7285 80.1866 68.273 81.183 68.4935C82.1793 68.7141 83.2121 68.6009 84.1507 68.1682C85.0893 67.7355 85.8915 67.0028 86.4559 66.0626C87.0204 65.1225 87.3216 64.0172 87.3216 62.8864C87.3203 61.3707 86.7786 59.9174 85.8156 58.8456C84.8526 57.7738 83.5469 57.171 82.185 57.1695Z" fill="white"/>
<path d="M82.185 125.773L38.853 85.1457C38.2509 84.5357 37.655 83.9218 37.0654 83.304C29.6635 75.5526 25.6649 66.0847 25.6828 56.3527C25.6828 44.4395 31.6357 33.0142 42.2319 24.5903C52.8281 16.1663 67.1997 11.4338 82.185 11.4338C97.1703 11.4338 111.542 16.1663 122.138 24.5903C132.734 33.0142 138.687 44.4395 138.687 56.3527C138.705 66.0803 134.708 75.5439 127.31 83.2918L127.305 83.304C127.305 83.304 125.764 84.9129 125.532 85.1294L82.185 125.773ZM45.2634 78.3834C45.2737 78.3834 46.4653 79.6411 46.7376 79.9106L82.185 113.146L117.679 79.8657C117.905 79.6411 119.107 78.3752 119.112 78.3711C125.158 72.038 128.426 64.3035 128.414 56.3527C128.414 46.6055 123.544 37.2576 114.874 30.3653C106.204 23.473 94.4457 19.6009 82.185 19.6009C69.9243 19.6009 58.1658 23.473 49.4961 30.3653C40.8265 37.2576 35.9559 46.6055 35.9559 56.3527C35.9452 64.3084 39.2165 72.0474 45.2685 78.3834H45.2634Z" fill="white"/>
</svg>
