<svg width="257" height="323" viewBox="0 0 257 323" fill="none" xmlns="http://www.w3.org/2000/svg">
<path d="M256.1 128.05C256.1 57.3294 198.771 0 128.05 0C57.3294 0 0 57.3294 0 128.05C0 216.794 139.891 322.09 139.891 322.09C139.891 322.09 256.1 218.563 256.1 128.05Z" fill="white"/>
<path d="M29.3672 139.361C29.3672 141.992 31.5008 144.125 34.1314 144.125H41.7316C42.2948 146.133 44.117 147.611 46.297 147.611H209.79C211.977 147.611 213.799 146.133 214.356 144.125H221.956C224.587 144.125 226.72 141.992 226.72 139.361H29.3672ZM202.727 131.078H128.05H53.3737C56.9783 98.7692 87.3194 74.0869 125.373 72.9737V71.9797C125.373 71.549 125.546 71.1515 125.824 70.8599C123.829 70.5021 122.339 69.0112 122.339 67.2288C122.339 65.1747 124.313 63.5115 126.745 63.5115C129.177 63.5115 131.151 65.1747 131.151 67.2288C131.151 68.8853 129.859 70.2702 128.083 70.7539C128.428 71.0521 128.653 71.4894 128.653 71.9797V72.9339C170.305 73.1658 199.056 98.1662 202.727 131.078ZM170.259 156.324C140.825 197.87 110.763 208.412 105.972 209.876C105.614 209.982 105.236 209.856 105.018 209.558L91.8186 191.588C91.5535 191.23 91.5933 190.72 91.9312 190.429C97.0002 186.108 95.6617 178.323 94.3166 175.135C92.8589 171.69 87.008 161.168 84.225 156.218C83.4034 154.753 84.2647 152.938 85.908 152.607C99.6109 149.83 99.2001 171.683 119.668 174.214C134.252 176.023 152.368 161.79 157.126 156.94C160.83 153.157 165.13 151.5 168.861 152.501C170.537 152.951 171.259 154.906 170.259 156.324ZM103.123 214.216L86.1399 191.098C85.5635 190.309 84.4569 190.144 83.675 190.72L73.537 198.168C72.7485 198.744 72.5829 199.851 73.1593 200.633L90.1421 223.751C90.7186 224.54 91.8252 224.706 92.6071 224.129L102.745 216.681C103.527 216.112 103.699 215.005 103.123 214.216ZM93.9787 218.729C92.342 218.729 91.0168 217.404 91.0168 215.767C91.0168 214.13 92.342 212.805 93.9787 212.805C95.6153 212.805 96.9406 214.13 96.9406 215.767C96.9406 217.404 95.6153 218.729 93.9787 218.729Z" fill="#FF4E17"/>
</svg>
