<svg width="300" height="232" viewBox="0 0 300 232" fill="none" xmlns="http://www.w3.org/2000/svg">
<path d="M215.136 65.1102C215.136 29.1505 185.985 0 150.026 0C114.066 0 84.9153 29.1505 84.9153 65.1102C84.9153 110.234 156.046 163.775 156.046 163.775C156.046 163.775 215.136 111.134 215.136 65.1102Z" fill="#FF4E17"/>
<path d="M99.8477 70.8615C99.8477 72.1991 100.933 73.2839 102.27 73.2839H106.135C106.421 74.3048 107.348 75.0562 108.456 75.0562H191.588C192.7 75.0562 193.627 74.3048 193.91 73.2839H197.774C199.112 73.2839 200.197 72.1991 200.197 70.8615H99.8477ZM187.997 66.6499H150.026H112.054C113.887 50.2216 129.315 37.6713 148.664 37.1052V36.5998C148.664 36.3808 148.752 36.1787 148.894 36.0304C147.879 35.8485 147.121 35.0904 147.121 34.1841C147.121 33.1397 148.125 32.294 149.362 32.294C150.598 32.294 151.602 33.1397 151.602 34.1841C151.602 35.0264 150.945 35.7306 150.042 35.9765C150.218 36.1282 150.332 36.3505 150.332 36.5998V37.085C171.511 37.2029 186.13 49.915 187.997 66.6499ZM171.488 79.4867C156.521 100.612 141.235 105.972 138.799 106.717C138.617 106.771 138.425 106.707 138.314 106.555L131.603 97.4177C131.468 97.2358 131.488 96.9763 131.66 96.8281C134.237 94.6314 133.557 90.6725 132.873 89.0519C132.132 87.2999 129.157 81.9496 127.742 79.4328C127.324 78.6882 127.762 77.765 128.597 77.5965C135.565 76.1848 135.356 87.2966 145.763 88.5836C153.179 89.5034 162.391 82.2663 164.81 79.8C166.693 77.8762 168.88 77.0339 170.777 77.5426C171.629 77.7718 171.996 78.7657 171.488 79.4867ZM137.351 108.924L128.715 97.1684C128.422 96.7674 127.859 96.6832 127.462 96.9763L122.307 100.763C121.906 101.056 121.822 101.619 122.115 102.017L130.75 113.772C131.043 114.173 131.606 114.257 132.004 113.964L137.158 110.177C137.556 109.887 137.644 109.325 137.351 108.924ZM132.701 111.218C131.869 111.218 131.195 110.544 131.195 109.712C131.195 108.88 131.869 108.206 132.701 108.206C133.533 108.206 134.207 108.88 134.207 109.712C134.207 110.544 133.533 111.218 132.701 111.218Z" fill="white"/>
<path d="M21.1517 184.187V189.77H9.49585V195.802H18.2174V201.222H9.49585V212.797H2.52679V184.187H21.1517ZM35.1662 213.123C32.9383 213.123 30.9277 212.647 29.1345 211.696C27.3685 210.745 25.9692 209.387 24.9368 207.621C23.9315 205.855 23.4289 203.79 23.4289 201.426C23.4289 199.089 23.9451 197.038 24.9775 195.272C26.01 193.479 27.4228 192.107 29.216 191.156C31.0092 190.205 33.0198 189.729 35.2477 189.729C37.4757 189.729 39.4862 190.205 41.2794 191.156C43.0726 192.107 44.4855 193.479 45.5179 195.272C46.5504 197.038 47.0666 199.089 47.0666 201.426C47.0666 203.763 46.5368 205.828 45.4772 207.621C44.4447 209.387 43.0183 210.745 41.1979 211.696C39.4047 212.647 37.3942 213.123 35.1662 213.123ZM35.1662 207.091C36.4975 207.091 37.6251 206.602 38.5489 205.624C39.4998 204.646 39.9753 203.246 39.9753 201.426C39.9753 199.606 39.5134 198.206 38.5896 197.228C37.693 196.25 36.5791 195.761 35.2477 195.761C33.8892 195.761 32.7617 196.25 31.8651 197.228C30.9685 198.179 30.5202 199.578 30.5202 201.426C30.5202 203.246 30.9549 204.646 31.8243 205.624C32.7209 206.602 33.8349 207.091 35.1662 207.091ZM61.1155 213.123C58.8876 213.123 56.877 212.647 55.0838 211.696C53.3178 210.745 51.9185 209.387 50.8861 207.621C49.8808 205.855 49.3782 203.79 49.3782 201.426C49.3782 199.089 49.8944 197.038 50.9268 195.272C51.9593 193.479 53.3721 192.107 55.1653 191.156C56.9585 190.205 58.9691 189.729 61.197 189.729C63.425 189.729 65.4355 190.205 67.2287 191.156C69.0219 192.107 70.4348 193.479 71.4672 195.272C72.4997 197.038 73.0159 199.089 73.0159 201.426C73.0159 203.763 72.4861 205.828 71.4265 207.621C70.394 209.387 68.9676 210.745 67.1472 211.696C65.354 212.647 63.3434 213.123 61.1155 213.123ZM61.1155 207.091C62.4468 207.091 63.5744 206.602 64.4982 205.624C65.4491 204.646 65.9246 203.246 65.9246 201.426C65.9246 199.606 65.4627 198.206 64.5389 197.228C63.6423 196.25 62.5283 195.761 61.197 195.761C59.8385 195.761 58.711 196.25 57.8144 197.228C56.9178 198.179 56.4695 199.578 56.4695 201.426C56.4695 203.246 56.9042 204.646 57.7736 205.624C58.6702 206.602 59.7842 207.091 61.1155 207.091ZM75.3274 201.385C75.3274 199.049 75.7622 196.997 76.6316 195.231C77.5282 193.465 78.7373 192.107 80.2588 191.156C81.7803 190.205 83.4784 189.729 85.3531 189.729C86.8474 189.729 88.2059 190.042 89.4286 190.667C90.6784 191.292 91.6565 192.134 92.3629 193.194V182.638H99.332V212.797H92.3629V209.536C91.7108 210.623 90.7735 211.492 89.5508 212.145C88.3554 212.797 86.9561 213.123 85.3531 213.123C83.4784 213.123 81.7803 212.647 80.2588 211.696C78.7373 210.718 77.5282 209.346 76.6316 207.58C75.7622 205.787 75.3274 203.722 75.3274 201.385ZM92.3629 201.426C92.3629 199.687 91.8739 198.315 90.8958 197.31C89.9448 196.305 88.7765 195.802 87.3908 195.802C86.0052 195.802 84.8233 196.305 83.8452 197.31C82.8942 198.288 82.4188 199.646 82.4188 201.385C82.4188 203.124 82.8942 204.51 83.8452 205.542C84.8233 206.548 86.0052 207.05 87.3908 207.05C88.7765 207.05 89.9448 206.548 90.8958 205.542C91.8739 204.537 92.3629 203.165 92.3629 201.426ZM129.597 212.797L119.979 200.163V212.797H113.01V184.187H119.979V196.739L129.516 184.187H137.708L126.622 198.206L138.115 212.797H129.597ZM151.779 213.123C149.551 213.123 147.54 212.647 145.747 211.696C143.981 210.745 142.582 209.387 141.549 207.621C140.544 205.855 140.041 203.79 140.041 201.426C140.041 199.089 140.558 197.038 141.59 195.272C142.623 193.479 144.035 192.107 145.829 191.156C147.622 190.205 149.632 189.729 151.86 189.729C154.088 189.729 156.099 190.205 157.892 191.156C159.685 192.107 161.098 193.479 162.131 195.272C163.163 197.038 163.679 199.089 163.679 201.426C163.679 203.763 163.149 205.828 162.09 207.621C161.057 209.387 159.631 210.745 157.811 211.696C156.017 212.647 154.007 213.123 151.779 213.123ZM151.779 207.091C153.11 207.091 154.238 206.602 155.161 205.624C156.112 204.646 156.588 203.246 156.588 201.426C156.588 199.606 156.126 198.206 155.202 197.228C154.306 196.25 153.192 195.761 151.86 195.761C150.502 195.761 149.374 196.25 148.478 197.228C147.581 198.179 147.133 199.578 147.133 201.426C147.133 203.246 147.568 204.646 148.437 205.624C149.334 206.602 150.448 207.091 151.779 207.091ZM181.233 189.811C183.896 189.811 186.015 190.68 187.591 192.419C189.194 194.131 189.995 196.495 189.995 199.511V212.797H183.067V200.448C183.067 198.926 182.673 197.745 181.885 196.902C181.097 196.06 180.038 195.639 178.706 195.639C177.375 195.639 176.315 196.06 175.527 196.902C174.739 197.745 174.345 198.926 174.345 200.448V212.797H167.376V190.055H174.345V193.071C175.052 192.066 176.003 191.278 177.198 190.708C178.394 190.11 179.739 189.811 181.233 189.811ZM208.695 189.811C211.357 189.811 213.477 190.68 215.052 192.419C216.655 194.131 217.457 196.495 217.457 199.511V212.797H210.529V200.448C210.529 198.926 210.135 197.745 209.347 196.902C208.559 196.06 207.499 195.639 206.168 195.639C204.837 195.639 203.777 196.06 202.989 196.902C202.201 197.745 201.807 198.926 201.807 200.448V212.797H194.838V190.055H201.807V193.071C202.514 192.066 203.465 191.278 204.66 190.708C205.855 190.11 207.2 189.811 208.695 189.811ZM243.737 201.059C243.737 201.711 243.696 202.391 243.614 203.097H227.842C227.951 204.51 228.399 205.597 229.187 206.357C230.002 207.091 230.994 207.458 232.162 207.458C233.901 207.458 235.11 206.724 235.79 205.257H243.207C242.827 206.751 242.134 208.096 241.128 209.292C240.15 210.487 238.914 211.425 237.42 212.104C235.925 212.783 234.254 213.123 232.407 213.123C230.179 213.123 228.196 212.647 226.457 211.696C224.718 210.745 223.359 209.387 222.381 207.621C221.403 205.855 220.914 203.79 220.914 201.426C220.914 199.062 221.39 196.997 222.341 195.231C223.319 193.465 224.677 192.107 226.416 191.156C228.155 190.205 230.152 189.729 232.407 189.729C234.608 189.729 236.564 190.191 238.276 191.115C239.987 192.039 241.319 193.357 242.27 195.068C243.248 196.78 243.737 198.777 243.737 201.059ZM236.605 199.225C236.605 198.03 236.197 197.079 235.382 196.372C234.567 195.666 233.548 195.313 232.325 195.313C231.157 195.313 230.165 195.652 229.35 196.332C228.562 197.011 228.073 197.975 227.883 199.225H236.605ZM246.028 201.426C246.028 199.062 246.503 196.997 247.454 195.231C248.432 193.465 249.777 192.107 251.489 191.156C253.228 190.205 255.211 189.729 257.439 189.729C260.292 189.729 262.669 190.477 264.571 191.971C266.5 193.465 267.763 195.571 268.361 198.288H260.944C260.319 196.549 259.11 195.68 257.317 195.68C256.04 195.68 255.021 196.182 254.26 197.188C253.499 198.166 253.119 199.578 253.119 201.426C253.119 203.274 253.499 204.7 254.26 205.705C255.021 206.683 256.04 207.172 257.317 207.172C259.11 207.172 260.319 206.303 260.944 204.564H268.361C267.763 207.227 266.5 209.319 264.571 210.84C262.642 212.362 260.265 213.123 257.439 213.123C255.211 213.123 253.228 212.647 251.489 211.696C249.777 210.745 248.432 209.387 247.454 207.621C246.503 205.855 246.028 203.79 246.028 201.426ZM284.764 206.887V212.797H281.218C278.691 212.797 276.721 212.185 275.309 210.963C273.896 209.713 273.189 207.689 273.189 204.89V195.843H270.418V190.055H273.189V184.513H280.158V190.055H284.723V195.843H280.158V204.972C280.158 205.651 280.321 206.14 280.647 206.439C280.974 206.738 281.517 206.887 282.278 206.887H284.764Z" fill="#FF4E17"/>
</svg>
