<svg width="108" height="61" viewBox="0 0 108 61" fill="none" xmlns="http://www.w3.org/2000/svg">
<path d="M72.9831 5.00616L37.8699 24.8385C23.177 33.1582 12.0503 43.2668 5.34203 54.3902C5.02212 54.9163 4.97117 55.4827 5.19502 56.0244C5.41887 56.5661 5.90845 57.0613 6.60765 57.453L6.626 57.4634C7.11256 57.7403 7.69125 57.9602 8.32878 58.1103C8.96632 58.2604 9.65011 58.3378 10.3408 58.3381C10.922 58.3379 11.4992 58.2839 12.0494 58.178C31.7433 54.3891 49.6406 48.1046 64.3704 39.8057L99.4824 19.9734C102.996 17.9887 104.971 15.2967 104.971 12.4898C104.971 9.68294 102.997 6.991 99.4825 5.00621C97.7425 4.02345 95.6769 3.24388 93.4035 2.712C91.1301 2.18013 88.6935 1.90638 86.2328 1.90637C81.2633 1.90636 76.4972 3.02139 72.9831 5.00616ZM59.5964 37.1099C46.3249 44.5862 30.3402 50.3477 12.7447 53.997C19.2055 44.0588 29.406 35.0303 42.6427 27.5343L63.5597 15.7202L80.5132 25.2958L59.5964 37.1099ZM94.7095 17.2776L85.2861 22.6L68.3326 13.0244L77.756 7.70195C78.8686 7.07171 80.1903 6.57154 81.6455 6.23005C83.1006 5.88857 84.6607 5.71247 86.2365 5.71183C87.8122 5.71118 89.3727 5.88601 90.8288 6.22631C92.2848 6.56661 93.6077 7.0657 94.722 7.69503C95.8362 8.32437 96.7198 9.0716 97.3223 9.89399C97.9248 10.7164 98.2343 11.5978 98.2331 12.4878C98.2319 13.3778 97.9201 14.259 97.3155 15.0808C96.7109 15.9027 95.8254 16.6492 94.7095 17.2776Z" fill="black"/>
</svg>
