<svg width="103" height="77" viewBox="0 0 103 77" fill="none" xmlns="http://www.w3.org/2000/svg">
<path d="M66.65 49.75L102 76M38.875 57.25C43.8488 57.25 48.7739 56.5225 53.3691 55.1091C57.9643 53.6957 62.1397 51.624 65.6567 49.0124C69.1737 46.4007 71.9635 43.3003 73.8669 39.888C75.7703 36.4757 76.75 32.8184 76.75 29.125C76.75 25.4316 75.7703 21.7743 73.8669 18.362C71.9635 14.9497 69.1737 11.8493 65.6567 9.23762C62.1397 6.62597 57.9643 4.5543 53.3691 3.14089C48.7739 1.72748 43.8488 1 38.875 1C28.8299 1 19.1963 3.96316 12.0933 9.23762C4.99039 14.5121 1 21.6658 1 29.125C1 36.5842 4.99039 43.7379 12.0933 49.0124C19.1963 54.2868 28.8299 57.25 38.875 57.25Z" stroke="black" stroke-width="2"/>
</svg>
