<svg width="34" height="34" viewBox="0 0 34 34" fill="none" xmlns="http://www.w3.org/2000/svg">
<path d="M21.8 21.8L33 33M13 25C14.5759 25 16.1363 24.6896 17.5922 24.0866C19.0481 23.4835 20.371 22.5996 21.4853 21.4853C22.5996 20.371 23.4835 19.0481 24.0866 17.5922C24.6896 16.1363 25 14.5759 25 13C25 11.4241 24.6896 9.86371 24.0866 8.4078C23.4835 6.95189 22.5996 5.62902 21.4853 4.51472C20.371 3.40042 19.0481 2.5165 17.5922 1.91345C16.1363 1.31039 14.5759 1 13 1C9.8174 1 6.76515 2.26428 4.51472 4.51472C2.26428 6.76515 1 9.8174 1 13C1 16.1826 2.26428 19.2348 4.51472 21.4853C6.76515 23.7357 9.8174 25 13 25Z" stroke="black" stroke-width="2"/>
<path d="M21.2938 19.6894C20.8423 18.679 20.1871 17.7612 19.3646 16.9872C18.5446 16.2109 17.5733 15.592 16.5042 15.1646C16.4947 15.1601 16.4851 15.1578 16.4755 15.1533C17.9667 14.1357 18.9361 12.4781 18.9361 10.608C18.9361 7.51005 16.2792 5 13 5C9.72077 5 7.06387 7.51005 7.06387 10.608C7.06387 12.4781 8.03328 14.1357 9.52449 15.1555C9.51492 15.16 9.50534 15.1623 9.49577 15.1668C8.42343 15.5942 7.46121 16.207 6.63541 16.9894C5.81371 17.7641 5.15857 18.6817 4.70617 19.6917C4.26173 20.6805 4.02204 21.7406 4.00006 22.8146C3.99942 22.8387 4.0039 22.8627 4.01324 22.8852C4.02258 22.9077 4.03658 22.9281 4.05442 22.9454C4.07227 22.9627 4.0936 22.9764 4.11715 22.9858C4.1407 22.9952 4.16599 23 4.19155 23H5.62771C5.73303 23 5.8168 22.9209 5.8192 22.8236C5.86707 21.0779 6.60908 19.443 7.92078 18.2038C9.27795 16.9216 11.0803 16.2161 13 16.2161C14.9197 16.2161 16.722 16.9216 18.0792 18.2038C19.3909 19.443 20.1329 21.0779 20.1808 22.8236C20.1832 22.9231 20.267 23 20.3723 23H21.8085C21.834 23 21.8593 22.9952 21.8829 22.9858C21.9064 22.9764 21.9277 22.9627 21.9456 22.9454C21.9634 22.9281 21.9774 22.9077 21.9868 22.8852C21.9961 22.8627 22.0006 22.8387 21.9999 22.8146C21.976 21.7337 21.739 20.6822 21.2938 19.6894ZM13 14.4975C11.9013 14.4975 10.8673 14.0927 10.0894 13.3578C9.31146 12.6229 8.88301 11.646 8.88301 10.608C8.88301 9.5701 9.31146 8.59322 10.0894 7.85829C10.8673 7.12337 11.9013 6.71859 13 6.71859C14.0987 6.71859 15.1327 7.12337 15.9106 7.85829C16.6885 8.59322 17.117 9.5701 17.117 10.608C17.117 11.646 16.6885 12.6229 15.9106 13.3578C15.1327 14.0927 14.0987 14.4975 13 14.4975Z" fill="black"/>
</svg>
